REM DIRINDEX 1\4,1\2\5,1\2\6,1\3\7,1\3\8
REM DIRNAME folder01,folder02,folder03,folder04,folder05,folder06,folder07,folder08
TITLE ""
FILE "058_Day29_Check3_Sentences.mp3" MP3
  TRACK 01 AUDIO
    TITLE "0:"
    INDEX 01 00:00:00
  TRACK 02 AUDIO
    TITLE "4:cjc124_1884"
    INDEX 01 00:00:25
  TRACK 03 AUDIO
    TITLE "0:"
    INDEX 01 00:02:00
  TRACK 04 AUDIO
    TITLE "7:cjc124_1885"
    INDEX 01 00:02:45
  TRACK 05 AUDIO
    TITLE "0:"
    INDEX 01 00:04:72
  TRACK 06 AUDIO
    TITLE "8:cjc124_1886"
    INDEX 01 00:05:14
  TRACK 07 AUDIO
    TITLE "0:"
    INDEX 01 00:07:43
  TRACK 08 AUDIO
    TITLE "7:cjc124_1887"
    INDEX 01 00:08:07
  TRACK 09 AUDIO
    TITLE "0:"
    INDEX 01 00:10:72
  TRACK 10 AUDIO
    TITLE "8:cjc124_1888"
    INDEX 01 00:11:19
  TRACK 11 AUDIO
    TITLE "0:"
    INDEX 01 00:13:14
  TRACK 12 AUDIO
    TITLE "7:cjc124_1889"
    INDEX 01 00:13:55
  TRACK 13 AUDIO
    TITLE "0:"
    INDEX 01 00:15:66
  TRACK 14 AUDIO
    TITLE "8:cjc124_1890"
    INDEX 01 00:16:12
  TRACK 15 AUDIO
    TITLE "0:"
    INDEX 01 00:17:72
  TRACK 16 AUDIO
    TITLE "7:cjc124_1891"
    INDEX 01 00:18:33
  TRACK 17 AUDIO
    TITLE "0:"
    INDEX 01 00:21:27
  TRACK 18 AUDIO
    TITLE "8:cjc124_1892"
    INDEX 01 00:21:45
  TRACK 19 AUDIO
    TITLE "0:"
    INDEX 01 00:23:59
  TRACK 20 AUDIO
    TITLE "7:cjc124_1893"
    INDEX 01 00:24:24
  TRACK 21 AUDIO
    TITLE "0:"
    INDEX 01 00:26:34
  TRACK 22 AUDIO
    TITLE "8:cjc124_1894"
    INDEX 01 00:26:50
  TRACK 23 AUDIO
    TITLE "0:"
    INDEX 01 00:28:62
  TRACK 24 AUDIO
    TITLE "7:cjc124_1895"
    INDEX 01 00:29:25
  TRACK 25 AUDIO
    TITLE "0:"
    INDEX 01 00:32:27
  TRACK 26 AUDIO
    TITLE "8:cjc124_1896"
    INDEX 01 00:32:54
  TRACK 27 AUDIO
    TITLE "0:"
    INDEX 01 00:35:17
  TRACK 28 AUDIO
    TITLE "7:cjc124_1897"
    INDEX 01 00:35:55
  TRACK 29 AUDIO
    TITLE "0:"
    INDEX 01 00:37:42
  TRACK 30 AUDIO
    TITLE "8:cjc124_1898"
    INDEX 01 00:37:71
  TRACK 31 AUDIO
    TITLE "0:"
    INDEX 01 00:40:30
  TRACK 32 AUDIO
    TITLE "7:cjc124_1899"
    INDEX 01 00:40:66
  TRACK 33 AUDIO
    TITLE "0:"
    INDEX 01 00:43:11
  TRACK 34 AUDIO
    TITLE "8:cjc124_1900"
    INDEX 01 00:43:29
  TRACK 35 AUDIO
    TITLE "0:"
    INDEX 01 00:44:65
  TRACK 36 AUDIO
    TITLE "7:cjc124_1901"
    INDEX 01 00:45:32
  TRACK 37 AUDIO
    TITLE "0:"
    INDEX 01 00:48:04
  TRACK 38 AUDIO
    TITLE "8:cjc124_1902"
    INDEX 01 00:48:22
  TRACK 39 AUDIO
    TITLE "0:"
    INDEX 01 00:51:09
  TRACK 40 AUDIO
    TITLE "7:cjc124_1903"
    INDEX 01 00:51:50
  TRACK 41 AUDIO
    TITLE "0:"
    INDEX 01 00:54:09
  TRACK 42 AUDIO
    TITLE "8:cjc124_1904"
    INDEX 01 00:54:27
  TRACK 43 AUDIO
    TITLE "0:"
    INDEX 01 00:56:47
  TRACK 44 AUDIO
    TITLE "7:cjc124_1905"
    INDEX 01 00:57:09
  TRACK 45 AUDIO
    TITLE "0:"
    INDEX 01 00:59:63
  TRACK 46 AUDIO
    TITLE "8:cjc124_1906"
    INDEX 01 01:00:08
  TRACK 47 AUDIO
    TITLE "0:"
    INDEX 01 01:02:14
  TRACK 48 AUDIO
    TITLE "7:cjc124_1907"
    INDEX 01 01:02:52
  TRACK 49 AUDIO
    TITLE "0:"
    INDEX 01 01:06:59
  TRACK 50 AUDIO
    TITLE "8:cjc124_1908"
    INDEX 01 01:06:71
  TRACK 51 AUDIO
    TITLE "0:"
    INDEX 01 01:10:04
  TRACK 52 AUDIO
    TITLE "7:cjc124_1909"
    INDEX 01 01:10:41
  TRACK 53 AUDIO
    TITLE "0:"
    INDEX 01 01:12:38
  TRACK 54 AUDIO
    TITLE "8:cjc124_1910"
    INDEX 01 01:12:56
  TRACK 55 AUDIO
    TITLE "0:"
    INDEX 01 01:14:70
  TRACK 56 AUDIO
    TITLE "7:cjc124_1911"
    INDEX 01 01:15:33
  TRACK 57 AUDIO
    TITLE "0:"
    INDEX 01 01:18:09
  TRACK 58 AUDIO
    TITLE "8:cjc124_1912"
    INDEX 01 01:18:25
  TRACK 59 AUDIO
    TITLE "0:"
    INDEX 01 01:21:06
  TRACK 60 AUDIO
    TITLE "7:cjc124_1913"
    INDEX 01 01:21:41
  TRACK 61 AUDIO
    TITLE "0:"
    INDEX 01 01:24:30
  TRACK 62 AUDIO
    TITLE "8:cjc124_1914"
    INDEX 01 01:24:57
  TRACK 63 AUDIO
    TITLE "0:"
    INDEX 01 01:27:26
  TRACK 64 AUDIO
    TITLE "7:cjc124_1915"
    INDEX 01 01:27:65
  TRACK 65 AUDIO
    TITLE "0:"
    INDEX 01 01:30:26
  TRACK 66 AUDIO
    TITLE "8:cjc124_1916"
    INDEX 01 01:30:42
  TRACK 67 AUDIO
    TITLE "0:"
    INDEX 01 01:33:07
